{"title":"CSI_NY_S07_E19_720p_TTL","uid":6307511,"size":1417324082,"categoryP":"video","categoryS":"hd___tv_shows","magnet":"?xt=urn:btih:3a1cbc15ac062e73f30daa79bf425834fbd825be&amp;dn=CSI_NY_S07_E19_720p_TTL&amp;tr=udp%3A%2F%2Ftracker.openbittorrent.com%3A80&amp;tr=udp%3A%2F%2Fopen.demonii.com%3A1337&amp;tr=udp%3A%2F%2Ftracker.coppersurfer.tk%3A6969&amp;tr=udp%3A%2F%2Fexodus.desync.com%3A6969","seeders":0,"leechers":1,"uploader":"thetorrentlord","files":2,"time":1302398350,"description":"My file sizes are slightly larger than most \n\nposters because in MHO it looks slightly better on \n\na large screen TV. I like how it looks on my large screen \n\nTV. I can only load 3 one hour shows on a DVD \n\ninstead of four, but I prefer a little more \n\nquality. Enjoy and please share.\t\t\t\n\n\t\t\t\t\t\t\t\n\n\t\t\t\t\t\t\t\n\n\t\t\t\t\t\t\t\n\n\t\t\t\t\t\t\t\n\n\t\t\t\t\t\t\n\n**************************************************\n\n**************************************************\n\n**************************************************\n\n**************************************************\n\n****\t\t\t\t\t\t\t\n\n\t\t\t\t\t\t\t\n\n\t\t\t\t\t\t\t\n\n\t\t\t\t\t\t\t\n\n\t\t\t\t\t\t\t\n\n\t\t\t\t\t\t\t\n\n\t\t\t\t\t\t\t\n\nCSI_NY_S07_E19_720p_TTL.avi\nFormat                           : AVI\nFormat/Info                      : Audio Video \n\nInterleave\nFormat profile                   : OpenDML\nFile size                        : 1.32 GiB\nDuration                         : 1h 22mn\nOverall bit rate                 : 2 295 Kbps\nMovie name                       : \n\nCSI_NY_S07_E19_720p_TTL.mpg\nDirector                         : \n\ncreated.with.SUPER(C).v2010.bld.37\nWriting application              : SUPER(C)   \n\nVideo\nID                               : 0\nFormat                           : MPEG-4 Visual\nFormat profile                   : Simple@L3\nFormat settings, BVOP            : No\nFormat settings, QPel            : No\nFormat settings, GMC             : No warppoints\nFormat settings, Matrix          : Default (H.263)\nCodec ID                         : XVID\nCodec ID/Hint                    : XviD\nDuration                         : 41mn 10s\nBit rate                         : 4 462 Kbps\nWidth                            : 1 280 pixels\nHeight                           : 720 pixels\nDisplay aspect ratio             : 16:9\nFrame rate                       : 29.970 fps\nColor space                      : YUV\nChroma subsampling               : 4:2:0\nBit depth                        : 8 bits\nScan type                        : Progressive\nBits/(Pixel*Frame)               : 0.162\nStream size                      : 1.28 GiB (97%)\nWriting library                  : XviD 1.1.2 (UTC \n\n2006-11-01)\n\nAudio\nID                               : 1\nFormat                           : MPEG Audio\nFormat version                   : Version 2\nFormat profile                   : Layer 3\nMode                             : Joint stereo\nCodec ID                         : 55\nCodec ID/Hint                    : MP3\nDuration                         : 1h 22mn\nBit rate mode                    : Constant\nBit rate                         : 112 Kbps\nChannel(s)                       : 2 channels\nSampling rate                    : 22.05 KHz\nStream size                      : 33.0 MiB (2%)\nAlignment                        : Aligned on \n\ninterleaves\nInterleave, duration             : 26 ms (0.78 \n\nvideo frame)\nInterleave, preload duration     : 26 ms\nWriting library                  : LAME3.98\n\n","torrent":{"xt":"urn:btih:3a1cbc15ac062e73f30daa79bf425834fbd825be","amp;dn":"CSI_NY_S07_E19_720p_TTL","amp;tr":["udp%3A%2F%2Ftracker.openbittorrent.com%3A80","udp%3A%2F%2Fopen.demonii.com%3A1337","udp%3A%2F%2Ftracker.coppersurfer.tk%3A6969","udp%3A%2F%2Fexodus.desync.com%3A6969"],"infoHash":"3a1cbc15ac062e73f30daa79bf425834fbd825be","infoHashBuffer":{"type":"Buffer","data":[58,28,188,21,172,6,46,115,243,13,170,121,191,66,88,52,251,216,37,190]},"announce":[],"urlList":[]}}